<?xml version="1.0" encoding="UTF-8" standalone="no"?>
<svg
   xmlns:dc="http://purl.org/dc/elements/1.1/"
   xmlns:cc="http://creativecommons.org/ns#"
   xmlns:rdf="http://www.w3.org/1999/02/22-rdf-syntax-ns#"
   xmlns:svg="http://www.w3.org/2000/svg"
   xmlns="http://www.w3.org/2000/svg"
   viewBox="0 0 745.38396 745.38397"
   height="745.38397"
   width="745.38397"
   xml:space="preserve"
   id="svg10"
   version="1.1"><metadata
     id="metadata16"><rdf:RDF><cc:Work
         rdf:about=""><dc:format>image/svg+xml</dc:format><dc:type
           rdf:resource="http://purl.org/dc/dcmitype/StillImage" /><dc:title></dc:title></cc:Work></rdf:RDF></metadata><defs
     id="defs14"><clipPath
       id="clipPath26"
       clipPathUnits="userSpaceOnUse"><path
         id="path24"
         d="M 0,938.596 H 754.386 V 0 H 0 Z" /></clipPath></defs><g
     transform="matrix(1.3333333,0,0,-1.3333333,-113.43666,1160.8656)"
     id="g18"><g
       style="fill:#ffffff"
       id="g20"><g
         style="fill:#ffffff"
         clip-path="url(#clipPath26)"
         id="g22"><g
           style="fill:#ffffff"
           transform="translate(610.3105,513.1382)"
           id="g28"><path
             id="path30"
             style="fill:#ffffff;fill-opacity:1;fill-rule:nonzero;stroke:none"
             d="m 0,0 h -10.008 c -10.01,0 -18.59,-17.13 -39.323,-23.556 -20.735,-6.422 -60.777,-39.965 -83.653,-61.375 -22.88,-21.412 0,-89.928 0,-89.928 0,0 -3.578,-3.279 -9.296,0 -5.719,3.277 -13.584,4.283 -25.025,4.283 -11.441,0 -16.445,7.133 -27.173,13.559 -10.722,6.422 -20.019,3.564 -20.019,13.562 0,9.991 -12.152,17.127 -16.441,38.539 -4.292,21.412 -15.73,12.845 -30.031,45.681 -14.299,32.826 -13.585,47.103 -56.482,67.802 -42.901,20.696 -49.339,-43.539 -55.059,-37.115 -5.722,6.425 -50.049,24.267 -57.914,43.533 -7.865,19.271 -10.725,37.118 -43.617,58.951 -32.888,21.833 -37.006,35.977 -37.006,35.977 l 143.545,2.854 v 213.239 h 120.118 c 0,0 -1.433,-84.056 0,-95.477 1.43,-11.418 145.859,-37.112 165.163,-32.116 19.303,4.996 21.45,2.854 42.183,-7.137 20.737,-9.992 25.028,-2.854 25.028,-2.854 l 0.711,-17.132 c 0.716,-17.127 -3.573,-58.523 5.01,-75.653 C -0.715,78.51 6.466,64.946 0,49.961 -6.461,34.972 0,0 0,0 m -245.714,357.511 c -154.376,0 -279.519,-125.145 -279.519,-279.519 0,-154.374 125.143,-279.519 279.519,-279.519 154.373,0 279.519,125.145 279.519,279.519 0,154.374 -125.146,279.519 -279.519,279.519" /></g><g
           style="fill:#ffffff"
           transform="translate(474.4424,613.5)"
           id="g32"><path
             id="path34"
             style="fill:#ffffff;fill-opacity:1;fill-rule:nonzero;stroke:none"
             d="m 0,0 v -50.085 h -50.079 v -48.953 h -50.084 v 48.953 h -50.081 V 0 h 50.081 v 50.08 h 50.084 V 0 Z" /></g></g></g></g></svg>