<?xml version="1.0" standalone="no"?>
<!DOCTYPE svg PUBLIC "-//W3C//DTD SVG 20010904//EN"
 "http://www.w3.org/TR/2001/REC-SVG-20010904/DTD/svg10.dtd">
<svg version="1.0" xmlns="http://www.w3.org/2000/svg"
 width="700.000000pt" height="700.000000pt" viewBox="0 0 700.000000 700.000000"
 preserveAspectRatio="xMidYMid meet">
<metadata>
Created by potrace 1.11, written by Peter Selinger 2001-2013
</metadata>
<g transform="translate(0.000000,700.000000) scale(0.100000,-0.100000)"
fill="#000000" stroke="none">
<path d="M3298 6995 c-1 -1 -41 -5 -88 -9 -100 -7 -225 -22 -295 -36 -27 -5
-61 -12 -75 -14 -370 -68 -754 -211 -1095 -409 -344 -200 -615 -425 -909 -757
-100 -113 -279 -367 -373 -531 -158 -274 -309 -656 -369 -932 -20 -90 -53
-272 -59 -322 -4 -33 -9 -69 -11 -80 -19 -100 -26 -567 -11 -715 12 -109 27
-226 41 -295 2 -11 6 -36 10 -55 49 -272 156 -595 283 -857 313 -646 812
-1179 1433 -1529 254 -144 461 -230 785 -327 111 -33 354 -83 458 -93 34 -3
65 -8 68 -9 15 -10 227 -20 409 -20 187 0 339 7 430 21 144 21 295 48 345 61
33 8 67 16 75 18 109 22 388 117 550 188 119 51 305 146 352 178 14 11 29 19
33 19 13 0 269 175 362 248 180 140 344 294 476 447 33 39 63 72 67 75 18 14
182 238 246 336 310 478 503 1039 552 1609 14 161 7 540 -12 695 -2 19 -7 58
-10 86 -4 28 -8 59 -10 70 -2 10 -11 60 -21 109 -222 1190 -1083 2201 -2232
2621 -171 63 -432 134 -578 158 -33 5 -224 32 -295 42 -47 6 -526 15 -532 9z
m176 -985 c-3 -672 -10 -613 81 -655 130 -61 543 -164 940 -234 33 -6 69 -13
81 -15 12 -2 45 -7 75 -11 30 -4 57 -9 60 -11 3 -2 26 -6 50 -9 24 -3 51 -7
59 -9 8 -3 42 -7 75 -11 33 -3 71 -8 85 -10 63 -11 89 -15 150 -20 36 -4 81
-8 100 -11 116 -14 288 -13 350 2 85 21 199 25 252 9 24 -7 79 -29 123 -50
135 -63 188 -86 235 -102 58 -20 162 -22 184 -4 19 16 18 44 21 -484 1 -209 5
-400 8 -425 4 -25 10 -63 13 -85 13 -82 23 -109 99 -268 97 -204 109 -300 59
-469 -24 -81 -28 -110 -28 -233 -1 -77 2 -169 7 -205 4 -36 9 -85 12 -110 3
-25 7 -50 9 -56 3 -6 -24 -10 -73 -11 -94 -1 -110 -8 -244 -115 -132 -105
-163 -124 -287 -175 -58 -24 -137 -62 -176 -83 -83 -45 -314 -203 -360 -245
-6 -5 -23 -19 -38 -30 -16 -11 -42 -32 -60 -47 -17 -14 -65 -54 -106 -88 -192
-158 -344 -303 -375 -356 -77 -131 -89 -371 -35 -671 25 -140 25 -139 59 -268
18 -66 26 -114 21 -119 -14 -14 -64 -9 -117 13 -76 32 -121 40 -242 46 -142 8
-180 21 -295 100 -119 82 -147 97 -231 125 -84 27 -113 51 -120 99 -10 63 -26
104 -77 188 -66 111 -101 191 -128 293 -34 127 -52 157 -150 255 -134 135
-182 214 -295 495 -63 153 -119 267 -167 338 -77 112 -221 221 -430 326 -182
92 -304 99 -418 23 -76 -50 -127 -122 -212 -294 -43 -89 -83 -165 -88 -168 -5
-3 -31 10 -57 28 -47 33 -135 86 -238 142 -116 64 -285 183 -350 249 -76 77
-85 92 -140 236 -117 303 -204 412 -510 632 -180 131 -225 167 -311 252 -67
68 -152 181 -142 191 4 4 175 9 763 20 132 2 380 7 550 11 171 4 344 7 385 8
41 0 80 4 85 8 7 4 10 453 9 1325 0 725 1 1323 3 1328 2 7 247 11 751 11 l748
0 -2 -596z"/>
<path d="M3620 4094 l0 -314 -313 0 -313 0 0 -312 1 -313 310 -2 310 -2 3
-306 2 -305 315 0 315 0 0 305 c0 237 3 305 13 306 6 0 146 1 310 1 214 0 297
3 298 12 1 6 2 147 3 314 l1 302 -312 0 -313 0 0 314 0 314 -315 0 -315 -1 0
-313z"/>
</g>
</svg>
